<?xml version="1.0" encoding="utf-8" standalone="no"?>
<!DOCTYPE svg PUBLIC "-//W3C//DTD SVG 1.1//EN"
  "http://www.w3.org/Graphics/SVG/1.1/DTD/svg11.dtd">
<svg xmlns:xlink="http://www.w3.org/1999/xlink" width="1000.433125pt" height="355.59625pt" viewBox="0 0 1000.433125 355.59625" xmlns="http://www.w3.org/2000/svg" version="1.1">
 <metadata>
  <rdf:RDF xmlns:dc="http://purl.org/dc/elements/1.1/" xmlns:cc="http://creativecommons.org/ns#" xmlns:rdf="http://www.w3.org/1999/02/22-rdf-syntax-ns#">
   <cc:Work>
    <dc:type rdf:resource="http://purl.org/dc/dcmitype/StillImage"/>
    <dc:date>2026-06-15T10:15:41.695653</dc:date>
    <dc:format>image/svg+xml</dc:format>
    <dc:creator>
     <cc:Agent>
      <dc:title>Matplotlib v3.10.8, https://matplotlib.org/</dc:title>
     </cc:Agent>
    </dc:creator>
   </cc:Work>
  </rdf:RDF>
 </metadata>
 <defs>
  <style type="text/css">*{stroke-linejoin: round; stroke-linecap: butt}</style>
 </defs>
 <g id="figure_1">
  <g id="patch_1">
   <path d="M 0 355.59625 
L 1000.433125 355.59625 
L 1000.433125 0 
L 0 0 
z
" style="fill: #ffffff"/>
  </g>
  <g id="axes_1">
   <g id="patch_2">
    <path d="M 40.603125 318.04 
L 491.483125 318.04 
L 491.483125 50.64 
L 40.603125 50.64 
z
" style="fill: #ffffff"/>
   </g>
   <g id="matplotlib.axis_1">
    <g id="xtick_1">
     <g id="line2d_1">
      <path d="M 96.963125 318.04 
L 96.963125 50.64 
" clip-path="url(#pd16dbe6b30)" style="fill: none; stroke: #b0b0b0; stroke-opacity: 0.3; stroke-width: 0.8; stroke-linecap: square"/>
     </g>
     <g id="line2d_2">
      <defs>
       <path id="m9bbd702a76" d="M 0 0 
L 0 3.5 
" style="stroke: #000000; stroke-width: 0.8"/>
      </defs>
      <g>
       <use xlink:href="#m9bbd702a76" x="96.963125" y="318.04" style="stroke: #000000; stroke-width: 0.8"/>
      </g>
     </g>
     <g id="text_1">
      <!-- No-load -->
      <g transform="translate(77.57875 332.638437) scale(0.1 -0.1)">
       <defs>
        <path id="DejaVuSans-4e" d="M 628 4666 
L 1478 4666 
L 3547 763 
L 3547 4666 
L 4159 4666 
L 4159 0 
L 3309 0 
L 1241 3903 
L 1241 0 
L 628 0 
L 628 4666 
z
" transform="scale(0.015625)"/>
        <path id="DejaVuSans-6f" d="M 1959 3097 
Q 1497 3097 1228 2736 
Q 959 2375 959 1747 
Q 959 1119 1226 758 
Q 1494 397 1959 397 
Q 2419 397 2687 759 
Q 2956 1122 2956 1747 
Q 2956 2369 2687 2733 
Q 2419 3097 1959 3097 
z
M 1959 3584 
Q 2709 3584 3137 3096 
Q 3566 2609 3566 1747 
Q 3566 888 3137 398 
Q 2709 -91 1959 -91 
Q 1206 -91 779 398 
Q 353 888 353 1747 
Q 353 2609 779 3096 
Q 1206 3584 1959 3584 
z
" transform="scale(0.015625)"/>
        <path id="DejaVuSans-2d" d="M 313 2009 
L 1997 2009 
L 1997 1497 
L 313 1497 
L 313 2009 
z
" transform="scale(0.015625)"/>
        <path id="DejaVuSans-6c" d="M 603 4863 
L 1178 4863 
L 1178 0 
L 603 0 
L 603 4863 
z
" transform="scale(0.015625)"/>
        <path id="DejaVuSans-61" d="M 2194 1759 
Q 1497 1759 1228 1600 
Q 959 1441 959 1056 
Q 959 750 1161 570 
Q 1363 391 1709 391 
Q 2188 391 2477 730 
Q 2766 1069 2766 1631 
L 2766 1759 
L 2194 1759 
z
M 3341 1997 
L 3341 0 
L 2766 0 
L 2766 531 
Q 2569 213 2275 61 
Q 1981 -91 1556 -91 
Q 1019 -91 701 211 
Q 384 513 384 1019 
Q 384 1609 779 1909 
Q 1175 2209 1959 2209 
L 2766 2209 
L 2766 2266 
Q 2766 2663 2505 2880 
Q 2244 3097 1772 3097 
Q 1472 3097 1187 3025 
Q 903 2953 641 2809 
L 641 3341 
Q 956 3463 1253 3523 
Q 1550 3584 1831 3584 
Q 2591 3584 2966 3190 
Q 3341 2797 3341 1997 
z
" transform="scale(0.015625)"/>
        <path id="DejaVuSans-64" d="M 2906 2969 
L 2906 4863 
L 3481 4863 
L 3481 0 
L 2906 0 
L 2906 525 
Q 2725 213 2448 61 
Q 2172 -91 1784 -91 
Q 1150 -91 751 415 
Q 353 922 353 1747 
Q 353 2572 751 3078 
Q 1150 3584 1784 3584 
Q 2172 3584 2448 3432 
Q 2725 3281 2906 2969 
z
M 947 1747 
Q 947 1113 1208 752 
Q 1469 391 1925 391 
Q 2381 391 2643 752 
Q 2906 1113 2906 1747 
Q 2906 2381 2643 2742 
Q 2381 3103 1925 3103 
Q 1469 3103 1208 2742 
Q 947 2381 947 1747 
z
" transform="scale(0.015625)"/>
       </defs>
       <use xlink:href="#DejaVuSans-4e"/>
       <use xlink:href="#DejaVuSans-6f" transform="translate(74.804688 0)"/>
       <use xlink:href="#DejaVuSans-2d" transform="translate(137.861328 0)"/>
       <use xlink:href="#DejaVuSans-6c" transform="translate(173.945312 0)"/>
       <use xlink:href="#DejaVuSans-6f" transform="translate(201.728516 0)"/>
       <use xlink:href="#DejaVuSans-61" transform="translate(262.910156 0)"/>
       <use xlink:href="#DejaVuSans-64" transform="translate(324.189453 0)"/>
      </g>
     </g>
    </g>
    <g id="xtick_2">
     <g id="line2d_3">
      <path d="M 209.683125 318.04 
L 209.683125 50.64 
" clip-path="url(#pd16dbe6b30)" style="fill: none; stroke: #b0b0b0; stroke-opacity: 0.3; stroke-width: 0.8; stroke-linecap: square"/>
     </g>
     <g id="line2d_4">
      <g>
       <use xlink:href="#m9bbd702a76" x="209.683125" y="318.04" style="stroke: #000000; stroke-width: 0.8"/>
      </g>
     </g>
     <g id="text_2">
      <!-- Entry -->
      <g transform="translate(196.38 332.638437) scale(0.1 -0.1)">
       <defs>
        <path id="DejaVuSans-45" d="M 628 4666 
L 3578 4666 
L 3578 4134 
L 1259 4134 
L 1259 2753 
L 3481 2753 
L 3481 2222 
L 1259 2222 
L 1259 531 
L 3634 531 
L 3634 0 
L 628 0 
L 628 4666 
z
" transform="scale(0.015625)"/>
        <path id="DejaVuSans-6e" d="M 3513 2113 
L 3513 0 
L 2938 0 
L 2938 2094 
Q 2938 2591 2744 2837 
Q 2550 3084 2163 3084 
Q 1697 3084 1428 2787 
Q 1159 2491 1159 1978 
L 1159 0 
L 581 0 
L 581 3500 
L 1159 3500 
L 1159 2956 
Q 1366 3272 1645 3428 
Q 1925 3584 2291 3584 
Q 2894 3584 3203 3211 
Q 3513 2838 3513 2113 
z
" transform="scale(0.015625)"/>
        <path id="DejaVuSans-74" d="M 1172 4494 
L 1172 3500 
L 2356 3500 
L 2356 3053 
L 1172 3053 
L 1172 1153 
Q 1172 725 1289 603 
Q 1406 481 1766 481 
L 2356 481 
L 2356 0 
L 1766 0 
Q 1100 0 847 248 
Q 594 497 594 1153 
L 594 3053 
L 172 3053 
L 172 3500 
L 594 3500 
L 594 4494 
L 1172 4494 
z
" transform="scale(0.015625)"/>
        <path id="DejaVuSans-72" d="M 2631 2963 
Q 2534 3019 2420 3045 
Q 2306 3072 2169 3072 
Q 1681 3072 1420 2755 
Q 1159 2438 1159 1844 
L 1159 0 
L 581 0 
L 581 3500 
L 1159 3500 
L 1159 2956 
Q 1341 3275 1631 3429 
Q 1922 3584 2338 3584 
Q 2397 3584 2469 3576 
Q 2541 3569 2628 3553 
L 2631 2963 
z
" transform="scale(0.015625)"/>
        <path id="DejaVuSans-79" d="M 2059 -325 
Q 1816 -950 1584 -1140 
Q 1353 -1331 966 -1331 
L 506 -1331 
L 506 -850 
L 844 -850 
Q 1081 -850 1212 -737 
Q 1344 -625 1503 -206 
L 1606 56 
L 191 3500 
L 800 3500 
L 1894 763 
L 2988 3500 
L 3597 3500 
L 2059 -325 
z
" transform="scale(0.015625)"/>
       </defs>
       <use xlink:href="#DejaVuSans-45"/>
       <use xlink:href="#DejaVuSans-6e" transform="translate(63.183594 0)"/>
       <use xlink:href="#DejaVuSans-74" transform="translate(126.5625 0)"/>
       <use xlink:href="#DejaVuSans-72" transform="translate(165.771484 0)"/>
       <use xlink:href="#DejaVuSans-79" transform="translate(206.884766 0)"/>
      </g>
     </g>
    </g>
    <g id="xtick_3">
     <g id="line2d_5">
      <path d="M 322.403125 318.04 
L 322.403125 50.64 
" clip-path="url(#pd16dbe6b30)" style="fill: none; stroke: #b0b0b0; stroke-opacity: 0.3; stroke-width: 0.8; stroke-linecap: square"/>
     </g>
     <g id="line2d_6">
      <g>
       <use xlink:href="#m9bbd702a76" x="322.403125" y="318.04" style="stroke: #000000; stroke-width: 0.8"/>
      </g>
     </g>
     <g id="text_3">
      <!-- Steady -->
      <g transform="translate(304.994531 332.638437) scale(0.1 -0.1)">
       <defs>
        <path id="DejaVuSans-53" d="M 3425 4513 
L 3425 3897 
Q 3066 4069 2747 4153 
Q 2428 4238 2131 4238 
Q 1616 4238 1336 4038 
Q 1056 3838 1056 3469 
Q 1056 3159 1242 3001 
Q 1428 2844 1947 2747 
L 2328 2669 
Q 3034 2534 3370 2195 
Q 3706 1856 3706 1288 
Q 3706 609 3251 259 
Q 2797 -91 1919 -91 
Q 1588 -91 1214 -16 
Q 841 59 441 206 
L 441 856 
Q 825 641 1194 531 
Q 1563 422 1919 422 
Q 2459 422 2753 634 
Q 3047 847 3047 1241 
Q 3047 1584 2836 1778 
Q 2625 1972 2144 2069 
L 1759 2144 
Q 1053 2284 737 2584 
Q 422 2884 422 3419 
Q 422 4038 858 4394 
Q 1294 4750 2059 4750 
Q 2388 4750 2728 4690 
Q 3069 4631 3425 4513 
z
" transform="scale(0.015625)"/>
        <path id="DejaVuSans-65" d="M 3597 1894 
L 3597 1613 
L 953 1613 
Q 991 1019 1311 708 
Q 1631 397 2203 397 
Q 2534 397 2845 478 
Q 3156 559 3463 722 
L 3463 178 
Q 3153 47 2828 -22 
Q 2503 -91 2169 -91 
Q 1331 -91 842 396 
Q 353 884 353 1716 
Q 353 2575 817 3079 
Q 1281 3584 2069 3584 
Q 2775 3584 3186 3129 
Q 3597 2675 3597 1894 
z
M 3022 2063 
Q 3016 2534 2758 2815 
Q 2500 3097 2075 3097 
Q 1594 3097 1305 2825 
Q 1016 2553 972 2059 
L 3022 2063 
z
" transform="scale(0.015625)"/>
       </defs>
       <use xlink:href="#DejaVuSans-53"/>
       <use xlink:href="#DejaVuSans-74" transform="translate(63.476562 0)"/>
       <use xlink:href="#DejaVuSans-65" transform="translate(102.685547 0)"/>
       <use xlink:href="#DejaVuSans-61" transform="translate(164.208984 0)"/>
       <use xlink:href="#DejaVuSans-64" transform="translate(225.488281 0)"/>
       <use xlink:href="#DejaVuSans-79" transform="translate(288.964844 0)"/>
      </g>
     </g>
    </g>
    <g id="xtick_4">
     <g id="line2d_7">
      <path d="M 435.123125 318.04 
L 435.123125 50.64 
" clip-path="url(#pd16dbe6b30)" style="fill: none; stroke: #b0b0b0; stroke-opacity: 0.3; stroke-width: 0.8; stroke-linecap: square"/>
     </g>
     <g id="line2d_8">
      <g>
       <use xlink:href="#m9bbd702a76" x="435.123125" y="318.04" style="stroke: #000000; stroke-width: 0.8"/>
      </g>
     </g>
     <g id="text_4">
      <!-- Exit -->
      <g transform="translate(425.655156 332.638437) scale(0.1 -0.1)">
       <defs>
        <path id="DejaVuSans-78" d="M 3513 3500 
L 2247 1797 
L 3578 0 
L 2900 0 
L 1881 1375 
L 863 0 
L 184 0 
L 1544 1831 
L 300 3500 
L 978 3500 
L 1906 2253 
L 2834 3500 
L 3513 3500 
z
" transform="scale(0.015625)"/>
        <path id="DejaVuSans-69" d="M 603 3500 
L 1178 3500 
L 1178 0 
L 603 0 
L 603 3500 
z
M 603 4863 
L 1178 4863 
L 1178 4134 
L 603 4134 
L 603 4863 
z
" transform="scale(0.015625)"/>
       </defs>
       <use xlink:href="#DejaVuSans-45"/>
       <use xlink:href="#DejaVuSans-78" transform="translate(63.183594 0)"/>
       <use xlink:href="#DejaVuSans-69" transform="translate(122.363281 0)"/>
       <use xlink:href="#DejaVuSans-74" transform="translate(150.146484 0)"/>
      </g>
     </g>
    </g>
   </g>
   <g id="matplotlib.axis_2">
    <g id="ytick_1">
     <g id="line2d_9">
      <path d="M 40.603125 305.885455 
L 491.483125 305.885455 
" clip-path="url(#pd16dbe6b30)" style="fill: none; stroke: #b0b0b0; stroke-opacity: 0.3; stroke-width: 0.8; stroke-linecap: square"/>
     </g>
     <g id="line2d_10">
      <defs>
       <path id="mda6b22cb7a" d="M 0 0 
L -3.5 0 
" style="stroke: #000000; stroke-width: 0.8"/>
      </defs>
      <g>
       <use xlink:href="#mda6b22cb7a" x="40.603125" y="305.885455" style="stroke: #000000; stroke-width: 0.8"/>
      </g>
     </g>
     <g id="text_5">
      <!-- 0 -->
      <g transform="translate(27.240625 309.684673) scale(0.1 -0.1)">
       <defs>
        <path id="DejaVuSans-30" d="M 2034 4250 
Q 1547 4250 1301 3770 
Q 1056 3291 1056 2328 
Q 1056 1369 1301 889 
Q 1547 409 2034 409 
Q 2525 409 2770 889 
Q 3016 1369 3016 2328 
Q 3016 3291 2770 3770 
Q 2525 4250 2034 4250 
z
M 2034 4750 
Q 2819 4750 3233 4129 
Q 3647 3509 3647 2328 
Q 3647 1150 3233 529 
Q 2819 -91 2034 -91 
Q 1250 -91 836 529 
Q 422 1150 422 2328 
Q 422 3509 836 4129 
Q 1250 4750 2034 4750 
z
" transform="scale(0.015625)"/>
       </defs>
       <use xlink:href="#DejaVuSans-30"/>
      </g>
     </g>
    </g>
    <g id="ytick_2">
     <g id="line2d_11">
      <path d="M 40.603125 251.865253 
L 491.483125 251.865253 
" clip-path="url(#pd16dbe6b30)" style="fill: none; stroke: #b0b0b0; stroke-opacity: 0.3; stroke-width: 0.8; stroke-linecap: square"/>
     </g>
     <g id="line2d_12">
      <g>
       <use xlink:href="#mda6b22cb7a" x="40.603125" y="251.865253" style="stroke: #000000; stroke-width: 0.8"/>
      </g>
     </g>
     <g id="text_6">
      <!-- 20 -->
      <g transform="translate(20.878125 255.664471) scale(0.1 -0.1)">
       <defs>
        <path id="DejaVuSans-32" d="M 1228 531 
L 3431 531 
L 3431 0 
L 469 0 
L 469 531 
Q 828 903 1448 1529 
Q 2069 2156 2228 2338 
Q 2531 2678 2651 2914 
Q 2772 3150 2772 3378 
Q 2772 3750 2511 3984 
Q 2250 4219 1831 4219 
Q 1534 4219 1204 4116 
Q 875 4013 500 3803 
L 500 4441 
Q 881 4594 1212 4672 
Q 1544 4750 1819 4750 
Q 2544 4750 2975 4387 
Q 3406 4025 3406 3419 
Q 3406 3131 3298 2873 
Q 3191 2616 2906 2266 
Q 2828 2175 2409 1742 
Q 1991 1309 1228 531 
z
" transform="scale(0.015625)"/>
       </defs>
       <use xlink:href="#DejaVuSans-32"/>
       <use xlink:href="#DejaVuSans-30" transform="translate(63.623047 0)"/>
      </g>
     </g>
    </g>
    <g id="ytick_3">
     <g id="line2d_13">
      <path d="M 40.603125 197.845051 
L 491.483125 197.845051 
" clip-path="url(#pd16dbe6b30)" style="fill: none; stroke: #b0b0b0; stroke-opacity: 0.3; stroke-width: 0.8; stroke-linecap: square"/>
     </g>
     <g id="line2d_14">
      <g>
       <use xlink:href="#mda6b22cb7a" x="40.603125" y="197.845051" style="stroke: #000000; stroke-width: 0.8"/>
      </g>
     </g>
     <g id="text_7">
      <!-- 40 -->
      <g transform="translate(20.878125 201.644269) scale(0.1 -0.1)">
       <defs>
        <path id="DejaVuSans-34" d="M 2419 4116 
L 825 1625 
L 2419 1625 
L 2419 4116 
z
M 2253 4666 
L 3047 4666 
L 3047 1625 
L 3713 1625 
L 3713 1100 
L 3047 1100 
L 3047 0 
L 2419 0 
L 2419 1100 
L 313 1100 
L 313 1709 
L 2253 4666 
z
" transform="scale(0.015625)"/>
       </defs>
       <use xlink:href="#DejaVuSans-34"/>
       <use xlink:href="#DejaVuSans-30" transform="translate(63.623047 0)"/>
      </g>
     </g>
    </g>
    <g id="ytick_4">
     <g id="line2d_15">
      <path d="M 40.603125 143.824848 
L 491.483125 143.824848 
" clip-path="url(#pd16dbe6b30)" style="fill: none; stroke: #b0b0b0; stroke-opacity: 0.3; stroke-width: 0.8; stroke-linecap: square"/>
     </g>
     <g id="line2d_16">
      <g>
       <use xlink:href="#mda6b22cb7a" x="40.603125" y="143.824848" style="stroke: #000000; stroke-width: 0.8"/>
      </g>
     </g>
     <g id="text_8">
      <!-- 60 -->
      <g transform="translate(20.878125 147.624067) scale(0.1 -0.1)">
       <defs>
        <path id="DejaVuSans-36" d="M 2113 2584 
Q 1688 2584 1439 2293 
Q 1191 2003 1191 1497 
Q 1191 994 1439 701 
Q 1688 409 2113 409 
Q 2538 409 2786 701 
Q 3034 994 3034 1497 
Q 3034 2003 2786 2293 
Q 2538 2584 2113 2584 
z
M 3366 4563 
L 3366 3988 
Q 3128 4100 2886 4159 
Q 2644 4219 2406 4219 
Q 1781 4219 1451 3797 
Q 1122 3375 1075 2522 
Q 1259 2794 1537 2939 
Q 1816 3084 2150 3084 
Q 2853 3084 3261 2657 
Q 3669 2231 3669 1497 
Q 3669 778 3244 343 
Q 2819 -91 2113 -91 
Q 1303 -91 875 529 
Q 447 1150 447 2328 
Q 447 3434 972 4092 
Q 1497 4750 2381 4750 
Q 2619 4750 2861 4703 
Q 3103 4656 3366 4563 
z
" transform="scale(0.015625)"/>
       </defs>
       <use xlink:href="#DejaVuSans-36"/>
       <use xlink:href="#DejaVuSans-30" transform="translate(63.623047 0)"/>
      </g>
     </g>
    </g>
    <g id="ytick_5">
     <g id="line2d_17">
      <path d="M 40.603125 89.804646 
L 491.483125 89.804646 
" clip-path="url(#pd16dbe6b30)" style="fill: none; stroke: #b0b0b0; stroke-opacity: 0.3; stroke-width: 0.8; stroke-linecap: square"/>
     </g>
     <g id="line2d_18">
      <g>
       <use xlink:href="#mda6b22cb7a" x="40.603125" y="89.804646" style="stroke: #000000; stroke-width: 0.8"/>
      </g>
     </g>
     <g id="text_9">
      <!-- 80 -->
      <g transform="translate(20.878125 93.603865) scale(0.1 -0.1)">
       <defs>
        <path id="DejaVuSans-38" d="M 2034 2216 
Q 1584 2216 1326 1975 
Q 1069 1734 1069 1313 
Q 1069 891 1326 650 
Q 1584 409 2034 409 
Q 2484 409 2743 651 
Q 3003 894 3003 1313 
Q 3003 1734 2745 1975 
Q 2488 2216 2034 2216 
z
M 1403 2484 
Q 997 2584 770 2862 
Q 544 3141 544 3541 
Q 544 4100 942 4425 
Q 1341 4750 2034 4750 
Q 2731 4750 3128 4425 
Q 3525 4100 3525 3541 
Q 3525 3141 3298 2862 
Q 3072 2584 2669 2484 
Q 3125 2378 3379 2068 
Q 3634 1759 3634 1313 
Q 3634 634 3220 271 
Q 2806 -91 2034 -91 
Q 1263 -91 848 271 
Q 434 634 434 1313 
Q 434 1759 690 2068 
Q 947 2378 1403 2484 
z
M 1172 3481 
Q 1172 3119 1398 2916 
Q 1625 2713 2034 2713 
Q 2441 2713 2670 2916 
Q 2900 3119 2900 3481 
Q 2900 3844 2670 4047 
Q 2441 4250 2034 4250 
Q 1625 4250 1398 4047 
Q 1172 3844 1172 3481 
z
" transform="scale(0.015625)"/>
       </defs>
       <use xlink:href="#DejaVuSans-38"/>
       <use xlink:href="#DejaVuSans-30" transform="translate(63.623047 0)"/>
      </g>
     </g>
    </g>
    <g id="text_10">
     <!-- Zone fraction (% of total signal) -->
     <g transform="translate(14.798437 263.915781) rotate(-90) scale(0.1 -0.1)">
      <defs>
       <path id="DejaVuSans-5a" d="M 359 4666 
L 4025 4666 
L 4025 4184 
L 1075 531 
L 4097 531 
L 4097 0 
L 288 0 
L 288 481 
L 3238 4134 
L 359 4134 
L 359 4666 
z
" transform="scale(0.015625)"/>
       <path id="DejaVuSans-20" transform="scale(0.015625)"/>
       <path id="DejaVuSans-66" d="M 2375 4863 
L 2375 4384 
L 1825 4384 
Q 1516 4384 1395 4259 
Q 1275 4134 1275 3809 
L 1275 3500 
L 2222 3500 
L 2222 3053 
L 1275 3053 
L 1275 0 
L 697 0 
L 697 3053 
L 147 3053 
L 147 3500 
L 697 3500 
L 697 3744 
Q 697 4328 969 4595 
Q 1241 4863 1831 4863 
L 2375 4863 
z
" transform="scale(0.015625)"/>
       <path id="DejaVuSans-63" d="M 3122 3366 
L 3122 2828 
Q 2878 2963 2633 3030 
Q 2388 3097 2138 3097 
Q 1578 3097 1268 2742 
Q 959 2388 959 1747 
Q 959 1106 1268 751 
Q 1578 397 2138 397 
Q 2388 397 2633 464 
Q 2878 531 3122 666 
L 3122 134 
Q 2881 22 2623 -34 
Q 2366 -91 2075 -91 
Q 1284 -91 818 406 
Q 353 903 353 1747 
Q 353 2603 823 3093 
Q 1294 3584 2113 3584 
Q 2378 3584 2631 3529 
Q 2884 3475 3122 3366 
z
" transform="scale(0.015625)"/>
       <path id="DejaVuSans-28" d="M 1984 4856 
Q 1566 4138 1362 3434 
Q 1159 2731 1159 2009 
Q 1159 1288 1364 580 
Q 1569 -128 1984 -844 
L 1484 -844 
Q 1016 -109 783 600 
Q 550 1309 550 2009 
Q 550 2706 781 3412 
Q 1013 4119 1484 4856 
L 1984 4856 
z
" transform="scale(0.015625)"/>
       <path id="DejaVuSans-25" d="M 4653 2053 
Q 4381 2053 4226 1822 
Q 4072 1591 4072 1178 
Q 4072 772 4226 539 
Q 4381 306 4653 306 
Q 4919 306 5073 539 
Q 5228 772 5228 1178 
Q 5228 1588 5073 1820 
Q 4919 2053 4653 2053 
z
M 4653 2450 
Q 5147 2450 5437 2106 
Q 5728 1763 5728 1178 
Q 5728 594 5436 251 
Q 5144 -91 4653 -91 
Q 4153 -91 3862 251 
Q 3572 594 3572 1178 
Q 3572 1766 3864 2108 
Q 4156 2450 4653 2450 
z
M 1428 4353 
Q 1159 4353 1004 4120 
Q 850 3888 850 3481 
Q 850 3069 1003 2837 
Q 1156 2606 1428 2606 
Q 1700 2606 1854 2837 
Q 2009 3069 2009 3481 
Q 2009 3884 1853 4118 
Q 1697 4353 1428 4353 
z
M 4250 4750 
L 4750 4750 
L 1831 -91 
L 1331 -91 
L 4250 4750 
z
M 1428 4750 
Q 1922 4750 2215 4408 
Q 2509 4066 2509 3481 
Q 2509 2891 2217 2550 
Q 1925 2209 1428 2209 
Q 931 2209 642 2551 
Q 353 2894 353 3481 
Q 353 4063 643 4406 
Q 934 4750 1428 4750 
z
" transform="scale(0.015625)"/>
       <path id="DejaVuSans-73" d="M 2834 3397 
L 2834 2853 
Q 2591 2978 2328 3040 
Q 2066 3103 1784 3103 
Q 1356 3103 1142 2972 
Q 928 2841 928 2578 
Q 928 2378 1081 2264 
Q 1234 2150 1697 2047 
L 1894 2003 
Q 2506 1872 2764 1633 
Q 3022 1394 3022 966 
Q 3022 478 2636 193 
Q 2250 -91 1575 -91 
Q 1294 -91 989 -36 
Q 684 19 347 128 
L 347 722 
Q 666 556 975 473 
Q 1284 391 1588 391 
Q 1994 391 2212 530 
Q 2431 669 2431 922 
Q 2431 1156 2273 1281 
Q 2116 1406 1581 1522 
L 1381 1569 
Q 847 1681 609 1914 
Q 372 2147 372 2553 
Q 372 3047 722 3315 
Q 1072 3584 1716 3584 
Q 2034 3584 2315 3537 
Q 2597 3491 2834 3397 
z
" transform="scale(0.015625)"/>
       <path id="DejaVuSans-67" d="M 2906 1791 
Q 2906 2416 2648 2759 
Q 2391 3103 1925 3103 
Q 1463 3103 1205 2759 
Q 947 2416 947 1791 
Q 947 1169 1205 825 
Q 1463 481 1925 481 
Q 2391 481 2648 825 
Q 2906 1169 2906 1791 
z
M 3481 434 
Q 3481 -459 3084 -895 
Q 2688 -1331 1869 -1331 
Q 1566 -1331 1297 -1286 
Q 1028 -1241 775 -1147 
L 775 -588 
Q 1028 -725 1275 -790 
Q 1522 -856 1778 -856 
Q 2344 -856 2625 -561 
Q 2906 -266 2906 331 
L 2906 616 
Q 2728 306 2450 153 
Q 2172 0 1784 0 
Q 1141 0 747 490 
Q 353 981 353 1791 
Q 353 2603 747 3093 
Q 1141 3584 1784 3584 
Q 2172 3584 2450 3431 
Q 2728 3278 2906 2969 
L 2906 3500 
L 3481 3500 
L 3481 434 
z
" transform="scale(0.015625)"/>
       <path id="DejaVuSans-29" d="M 513 4856 
L 1013 4856 
Q 1481 4119 1714 3412 
Q 1947 2706 1947 2009 
Q 1947 1309 1714 600 
Q 1481 -109 1013 -844 
L 513 -844 
Q 928 -128 1133 580 
Q 1338 1288 1338 2009 
Q 1338 2731 1133 3434 
Q 928 4138 513 4856 
z
" transform="scale(0.015625)"/>
      </defs>
      <use xlink:href="#DejaVuSans-5a"/>
      <use xlink:href="#DejaVuSans-6f" transform="translate(68.505859 0)"/>
      <use xlink:href="#DejaVuSans-6e" transform="translate(129.6875 0)"/>
      <use xlink:href="#DejaVuSans-65" transform="translate(193.066406 0)"/>
      <use xlink:href="#DejaVuSans-20" transform="translate(254.589844 0)"/>
      <use xlink:href="#DejaVuSans-66" transform="translate(286.376953 0)"/>
      <use xlink:href="#DejaVuSans-72" transform="translate(321.582031 0)"/>
      <use xlink:href="#DejaVuSans-61" transform="translate(362.695312 0)"/>
      <use xlink:href="#DejaVuSans-63" transform="translate(423.974609 0)"/>
      <use xlink:href="#DejaVuSans-74" transform="translate(478.955078 0)"/>
      <use xlink:href="#DejaVuSans-69" transform="translate(518.164062 0)"/>
      <use xlink:href="#DejaVuSans-6f" transform="translate(545.947266 0)"/>
      <use xlink:href="#DejaVuSans-6e" transform="translate(607.128906 0)"/>
      <use xlink:href="#DejaVuSans-20" transform="translate(670.507812 0)"/>
      <use xlink:href="#DejaVuSans-28" transform="translate(702.294922 0)"/>
      <use xlink:href="#DejaVuSans-25" transform="translate(741.308594 0)"/>
      <use xlink:href="#DejaVuSans-20" transform="translate(836.328125 0)"/>
      <use xlink:href="#DejaVuSans-6f" transform="translate(868.115234 0)"/>
      <use xlink:href="#DejaVuSans-66" transform="translate(929.296875 0)"/>
      <use xlink:href="#DejaVuSans-20" transform="translate(964.501953 0)"/>
      <use xlink:href="#DejaVuSans-74" transform="translate(996.289062 0)"/>
      <use xlink:href="#DejaVuSans-6f" transform="translate(1035.498047 0)"/>
      <use xlink:href="#DejaVuSans-74" transform="translate(1096.679688 0)"/>
      <use xlink:href="#DejaVuSans-61" transform="translate(1135.888672 0)"/>
      <use xlink:href="#DejaVuSans-6c" transform="translate(1197.167969 0)"/>
      <use xlink:href="#DejaVuSans-20" transform="translate(1224.951172 0)"/>
      <use xlink:href="#DejaVuSans-73" transform="translate(1256.738281 0)"/>
      <use xlink:href="#DejaVuSans-69" transform="translate(1308.837891 0)"/>
      <use xlink:href="#DejaVuSans-67" transform="translate(1336.621094 0)"/>
      <use xlink:href="#DejaVuSans-6e" transform="translate(1400.097656 0)"/>
      <use xlink:href="#DejaVuSans-61" transform="translate(1463.476562 0)"/>
      <use xlink:href="#DejaVuSans-6c" transform="translate(1524.755859 0)"/>
      <use xlink:href="#DejaVuSans-29" transform="translate(1552.539062 0)"/>
     </g>
    </g>
   </g>
   <g id="line2d_19">
    <path d="M 71.601125 287.406044 
L 122.325125 287.406044 
L 122.325125 277.884983 
L 71.601125 277.884983 
L 71.601125 287.406044 
" clip-path="url(#pd16dbe6b30)" style="fill: none; stroke: #000000; stroke-linecap: square"/>
   </g>
   <g id="line2d_20">
    <path d="M 96.963125 287.406044 
L 96.963125 297.452301 
" clip-path="url(#pd16dbe6b30)" style="fill: none; stroke: #000000; stroke-linecap: square"/>
   </g>
   <g id="line2d_21">
    <path d="M 96.963125 277.884983 
L 96.963125 265.490348 
" clip-path="url(#pd16dbe6b30)" style="fill: none; stroke: #000000; stroke-linecap: square"/>
   </g>
   <g id="line2d_22">
    <path d="M 84.282125 297.452301 
L 109.644125 297.452301 
" clip-path="url(#pd16dbe6b30)" style="fill: none; stroke: #000000; stroke-linecap: square"/>
   </g>
   <g id="line2d_23">
    <path d="M 84.282125 265.490348 
L 109.644125 265.490348 
" clip-path="url(#pd16dbe6b30)" style="fill: none; stroke: #000000; stroke-linecap: square"/>
   </g>
   <g id="line2d_24">
    <defs>
     <path id="m49e6dd0ffc" d="M 0 3 
C 0.795609 3 1.55874 2.683901 2.12132 2.12132 
C 2.683901 1.55874 3 0.795609 3 0 
C 3 -0.795609 2.683901 -1.55874 2.12132 -2.12132 
C 1.55874 -2.683901 0.795609 -3 0 -3 
C -0.795609 -3 -1.55874 -2.683901 -2.12132 -2.12132 
C -2.683901 -1.55874 -3 -0.795609 -3 0 
C -3 0.795609 -2.683901 1.55874 -2.12132 2.12132 
C -1.55874 2.683901 -0.795609 3 0 3 
z
" style="stroke: #000000"/>
    </defs>
    <g clip-path="url(#pd16dbe6b30)">
     <use xlink:href="#m49e6dd0ffc" x="96.963125" y="251.475107" style="fill-opacity: 0; stroke: #000000"/>
     <use xlink:href="#m49e6dd0ffc" x="96.963125" y="258.317666" style="fill-opacity: 0; stroke: #000000"/>
     <use xlink:href="#m49e6dd0ffc" x="96.963125" y="243.552144" style="fill-opacity: 0; stroke: #000000"/>
     <use xlink:href="#m49e6dd0ffc" x="96.963125" y="240.671066" style="fill-opacity: 0; stroke: #000000"/>
     <use xlink:href="#m49e6dd0ffc" x="96.963125" y="260.118339" style="fill-opacity: 0; stroke: #000000"/>
     <use xlink:href="#m49e6dd0ffc" x="96.963125" y="262.159102" style="fill-opacity: 0; stroke: #000000"/>
    </g>
   </g>
   <g id="line2d_25">
    <path d="M 184.321125 264.237379 
L 235.045125 264.237379 
L 235.045125 221.891543 
L 184.321125 221.891543 
L 184.321125 264.237379 
" clip-path="url(#pd16dbe6b30)" style="fill: none; stroke: #000000; stroke-linecap: square"/>
   </g>
   <g id="line2d_26">
    <path d="M 209.683125 264.237379 
L 209.683125 293.790932 
" clip-path="url(#pd16dbe6b30)" style="fill: none; stroke: #000000; stroke-linecap: square"/>
   </g>
   <g id="line2d_27">
    <path d="M 209.683125 221.891543 
L 209.683125 194.333737 
" clip-path="url(#pd16dbe6b30)" style="fill: none; stroke: #000000; stroke-linecap: square"/>
   </g>
   <g id="line2d_28">
    <path d="M 197.002125 293.790932 
L 222.364125 293.790932 
" clip-path="url(#pd16dbe6b30)" style="fill: none; stroke: #000000; stroke-linecap: square"/>
   </g>
   <g id="line2d_29">
    <path d="M 197.002125 194.333737 
L 222.364125 194.333737 
" clip-path="url(#pd16dbe6b30)" style="fill: none; stroke: #000000; stroke-linecap: square"/>
   </g>
   <g id="line2d_30"/>
   <g id="line2d_31">
    <path d="M 297.041125 155.829338 
L 347.765125 155.829338 
L 347.765125 155.829338 
L 297.041125 155.829338 
L 297.041125 155.829338 
" clip-path="url(#pd16dbe6b30)" style="fill: none; stroke: #000000; stroke-linecap: square"/>
   </g>
   <g id="line2d_32">
    <path d="M 322.403125 155.829338 
L 322.403125 155.829338 
" clip-path="url(#pd16dbe6b30)" style="fill: none; stroke: #000000; stroke-linecap: square"/>
   </g>
   <g id="line2d_33">
    <path d="M 322.403125 155.829338 
L 322.403125 155.829338 
" clip-path="url(#pd16dbe6b30)" style="fill: none; stroke: #000000; stroke-linecap: square"/>
   </g>
   <g id="line2d_34">
    <path d="M 309.722125 155.829338 
L 335.084125 155.829338 
" clip-path="url(#pd16dbe6b30)" style="fill: none; stroke: #000000; stroke-linecap: square"/>
   </g>
   <g id="line2d_35">
    <path d="M 309.722125 155.829338 
L 335.084125 155.829338 
" clip-path="url(#pd16dbe6b30)" style="fill: none; stroke: #000000; stroke-linecap: square"/>
   </g>
   <g id="line2d_36">
    <g clip-path="url(#pd16dbe6b30)">
     <use xlink:href="#m49e6dd0ffc" x="322.403125" y="155.829338" style="fill-opacity: 0; stroke: #000000"/>
     <use xlink:href="#m49e6dd0ffc" x="322.403125" y="155.829338" style="fill-opacity: 0; stroke: #000000"/>
     <use xlink:href="#m49e6dd0ffc" x="322.403125" y="155.829338" style="fill-opacity: 0; stroke: #000000"/>
     <use xlink:href="#m49e6dd0ffc" x="322.403125" y="155.829338" style="fill-opacity: 0; stroke: #000000"/>
    </g>
   </g>
   <g id="line2d_37">
    <path d="M 409.761125 300.821061 
L 460.485125 300.821061 
L 460.485125 247.281038 
L 409.761125 247.281038 
L 409.761125 300.821061 
" clip-path="url(#pd16dbe6b30)" style="fill: none; stroke: #000000; stroke-linecap: square"/>
   </g>
   <g id="line2d_38">
    <path d="M 435.123125 300.821061 
L 435.123125 305.885455 
" clip-path="url(#pd16dbe6b30)" style="fill: none; stroke: #000000; stroke-linecap: square"/>
   </g>
   <g id="line2d_39">
    <path d="M 435.123125 247.281038 
L 435.123125 215.821773 
" clip-path="url(#pd16dbe6b30)" style="fill: none; stroke: #000000; stroke-linecap: square"/>
   </g>
   <g id="line2d_40">
    <path d="M 422.442125 305.885455 
L 447.804125 305.885455 
" clip-path="url(#pd16dbe6b30)" style="fill: none; stroke: #000000; stroke-linecap: square"/>
   </g>
   <g id="line2d_41">
    <path d="M 422.442125 215.821773 
L 447.804125 215.821773 
" clip-path="url(#pd16dbe6b30)" style="fill: none; stroke: #000000; stroke-linecap: square"/>
   </g>
   <g id="line2d_42"/>
   <g id="line2d_43">
    <path d="M 40.603125 170.834949 
L 491.483125 170.834949 
" clip-path="url(#pd16dbe6b30)" style="fill: none; stroke-dasharray: 0.8,1.32; stroke-dashoffset: 0; stroke: #dc143c; stroke-opacity: 0.4; stroke-width: 0.8"/>
   </g>
   <g id="line2d_44">
    <path d="M 40.603125 143.824848 
L 491.483125 143.824848 
" clip-path="url(#pd16dbe6b30)" style="fill: none; stroke-dasharray: 0.8,1.32; stroke-dashoffset: 0; stroke: #dc143c; stroke-opacity: 0.4; stroke-width: 0.8"/>
   </g>
   <g id="line2d_45">
    <path d="M 40.603125 116.814747 
L 491.483125 116.814747 
" clip-path="url(#pd16dbe6b30)" style="fill: none; stroke-dasharray: 0.8,1.32; stroke-dashoffset: 0; stroke: #dc143c; stroke-opacity: 0.4; stroke-width: 0.8"/>
   </g>
   <g id="line2d_46">
    <path d="M 40.603125 89.804646 
L 491.483125 89.804646 
" clip-path="url(#pd16dbe6b30)" style="fill: none; stroke-dasharray: 0.8,1.32; stroke-dashoffset: 0; stroke: #dc143c; stroke-opacity: 0.4; stroke-width: 0.8"/>
   </g>
   <g id="line2d_47">
    <path d="M 40.603125 62.794545 
L 491.483125 62.794545 
" clip-path="url(#pd16dbe6b30)" style="fill: none; stroke-dasharray: 0.8,1.32; stroke-dashoffset: 0; stroke: #dc143c; stroke-opacity: 0.4; stroke-width: 0.8"/>
   </g>
   <g id="line2d_48">
    <path d="M 71.601125 282.671773 
L 122.325125 282.671773 
" clip-path="url(#pd16dbe6b30)" style="fill: none; stroke: #ff7f0e"/>
   </g>
   <g id="line2d_49">
    <path d="M 184.321125 250.589776 
L 235.045125 250.589776 
" clip-path="url(#pd16dbe6b30)" style="fill: none; stroke: #ff7f0e"/>
   </g>
   <g id="line2d_50">
    <path d="M 297.041125 155.829338 
L 347.765125 155.829338 
" clip-path="url(#pd16dbe6b30)" style="fill: none; stroke: #ff7f0e"/>
   </g>
   <g id="line2d_51">
    <path d="M 409.761125 275.934254 
L 460.485125 275.934254 
" clip-path="url(#pd16dbe6b30)" style="fill: none; stroke: #ff7f0e"/>
   </g>
   <g id="patch_3">
    <path d="M 40.603125 318.04 
L 40.603125 50.64 
" style="fill: none; stroke: #000000; stroke-width: 0.8; stroke-linejoin: miter; stroke-linecap: square"/>
   </g>
   <g id="patch_4">
    <path d="M 491.483125 318.04 
L 491.483125 50.64 
" style="fill: none; stroke: #000000; stroke-width: 0.8; stroke-linejoin: miter; stroke-linecap: square"/>
   </g>
   <g id="patch_5">
    <path d="M 40.603125 318.04 
L 491.483125 318.04 
" style="fill: none; stroke: #000000; stroke-width: 0.8; stroke-linejoin: miter; stroke-linecap: square"/>
   </g>
   <g id="patch_6">
    <path d="M 40.603125 50.64 
L 491.483125 50.64 
" style="fill: none; stroke: #000000; stroke-width: 0.8; stroke-linejoin: miter; stroke-linecap: square"/>
   </g>
   <g id="text_11">
    <!-- Signal zone width distribution -->
    <g transform="translate(176.8475 44.64) scale(0.12 -0.12)">
     <defs>
      <path id="DejaVuSans-7a" d="M 353 3500 
L 3084 3500 
L 3084 2975 
L 922 459 
L 3084 459 
L 3084 0 
L 275 0 
L 275 525 
L 2438 3041 
L 353 3041 
L 353 3500 
z
" transform="scale(0.015625)"/>
      <path id="DejaVuSans-77" d="M 269 3500 
L 844 3500 
L 1563 769 
L 2278 3500 
L 2956 3500 
L 3675 769 
L 4391 3500 
L 4966 3500 
L 4050 0 
L 3372 0 
L 2619 2869 
L 1863 0 
L 1184 0 
L 269 3500 
z
" transform="scale(0.015625)"/>
      <path id="DejaVuSans-68" d="M 3513 2113 
L 3513 0 
L 2938 0 
L 2938 2094 
Q 2938 2591 2744 2837 
Q 2550 3084 2163 3084 
Q 1697 3084 1428 2787 
Q 1159 2491 1159 1978 
L 1159 0 
L 581 0 
L 581 4863 
L 1159 4863 
L 1159 2956 
Q 1366 3272 1645 3428 
Q 1925 3584 2291 3584 
Q 2894 3584 3203 3211 
Q 3513 2838 3513 2113 
z
" transform="scale(0.015625)"/>
      <path id="DejaVuSans-62" d="M 3116 1747 
Q 3116 2381 2855 2742 
Q 2594 3103 2138 3103 
Q 1681 3103 1420 2742 
Q 1159 2381 1159 1747 
Q 1159 1113 1420 752 
Q 1681 391 2138 391 
Q 2594 391 2855 752 
Q 3116 1113 3116 1747 
z
M 1159 2969 
Q 1341 3281 1617 3432 
Q 1894 3584 2278 3584 
Q 2916 3584 3314 3078 
Q 3713 2572 3713 1747 
Q 3713 922 3314 415 
Q 2916 -91 2278 -91 
Q 1894 -91 1617 61 
Q 1341 213 1159 525 
L 1159 0 
L 581 0 
L 581 4863 
L 1159 4863 
L 1159 2969 
z
" transform="scale(0.015625)"/>
      <path id="DejaVuSans-75" d="M 544 1381 
L 544 3500 
L 1119 3500 
L 1119 1403 
Q 1119 906 1312 657 
Q 1506 409 1894 409 
Q 2359 409 2629 706 
Q 2900 1003 2900 1516 
L 2900 3500 
L 3475 3500 
L 3475 0 
L 2900 0 
L 2900 538 
Q 2691 219 2414 64 
Q 2138 -91 1772 -91 
Q 1169 -91 856 284 
Q 544 659 544 1381 
z
M 1991 3584 
L 1991 3584 
z
" transform="scale(0.015625)"/>
     </defs>
     <use xlink:href="#DejaVuSans-53"/>
     <use xlink:href="#DejaVuSans-69" transform="translate(63.476562 0)"/>
     <use xlink:href="#DejaVuSans-67" transform="translate(91.259766 0)"/>
     <use xlink:href="#DejaVuSans-6e" transform="translate(154.736328 0)"/>
     <use xlink:href="#DejaVuSans-61" transform="translate(218.115234 0)"/>
     <use xlink:href="#DejaVuSans-6c" transform="translate(279.394531 0)"/>
     <use xlink:href="#DejaVuSans-20" transform="translate(307.177734 0)"/>
     <use xlink:href="#DejaVuSans-7a" transform="translate(338.964844 0)"/>
     <use xlink:href="#DejaVuSans-6f" transform="translate(391.455078 0)"/>
     <use xlink:href="#DejaVuSans-6e" transform="translate(452.636719 0)"/>
     <use xlink:href="#DejaVuSans-65" transform="translate(516.015625 0)"/>
     <use xlink:href="#DejaVuSans-20" transform="translate(577.539062 0)"/>
     <use xlink:href="#DejaVuSans-77" transform="translate(609.326172 0)"/>
     <use xlink:href="#DejaVuSans-69" transform="translate(691.113281 0)"/>
     <use xlink:href="#DejaVuSans-64" transform="translate(718.896484 0)"/>
     <use xlink:href="#DejaVuSans-74" transform="translate(782.373047 0)"/>
     <use xlink:href="#DejaVuSans-68" transform="translate(821.582031 0)"/>
     <use xlink:href="#DejaVuSans-20" transform="translate(884.960938 0)"/>
     <use xlink:href="#DejaVuSans-64" transform="translate(916.748047 0)"/>
     <use xlink:href="#DejaVuSans-69" transform="translate(980.224609 0)"/>
     <use xlink:href="#DejaVuSans-73" transform="translate(1008.007812 0)"/>
     <use xlink:href="#DejaVuSans-74" transform="translate(1060.107422 0)"/>
     <use xlink:href="#DejaVuSans-72" transform="translate(1099.316406 0)"/>
     <use xlink:href="#DejaVuSans-69" transform="translate(1140.429688 0)"/>
     <use xlink:href="#DejaVuSans-62" transform="translate(1168.212891 0)"/>
     <use xlink:href="#DejaVuSans-75" transform="translate(1231.689453 0)"/>
     <use xlink:href="#DejaVuSans-74" transform="translate(1295.068359 0)"/>
     <use xlink:href="#DejaVuSans-69" transform="translate(1334.277344 0)"/>
     <use xlink:href="#DejaVuSans-6f" transform="translate(1362.060547 0)"/>
     <use xlink:href="#DejaVuSans-6e" transform="translate(1423.242188 0)"/>
    </g>
   </g>
  </g>
  <g id="axes_2">
   <g id="patch_7">
    <path d="M 542.353125 318.04 
L 993.233125 318.04 
L 993.233125 50.64 
L 542.353125 50.64 
z
" style="fill: #ffffff"/>
   </g>
   <g id="patch_8">
    <path d="M 562.84767 318.04 
L 592.427427 318.04 
L 592.427427 233.254634 
L 562.84767 233.254634 
z
" clip-path="url(#pf7b8ba16aa)" style="fill: #d3d3d3"/>
   </g>
   <g id="patch_9">
    <path d="M 605.104465 318.04 
L 634.684222 318.04 
L 634.684222 313.148537 
L 605.104465 313.148537 
z
" clip-path="url(#pf7b8ba16aa)" style="fill: #d3d3d3"/>
   </g>
   <g id="patch_10">
    <path d="M 647.36126 318.04 
L 676.941016 318.04 
L 676.941016 318.04 
L 647.36126 318.04 
z
" clip-path="url(#pf7b8ba16aa)" style="fill: #d3d3d3"/>
   </g>
   <g id="patch_11">
    <path d="M 689.618055 318.04 
L 719.197811 318.04 
L 719.197811 318.04 
L 689.618055 318.04 
z
" clip-path="url(#pf7b8ba16aa)" style="fill: #d3d3d3"/>
   </g>
   <g id="patch_12">
    <path d="M 731.874849 318.04 
L 761.454606 318.04 
L 761.454606 318.04 
L 731.874849 318.04 
z
" clip-path="url(#pf7b8ba16aa)" style="fill: #d3d3d3"/>
   </g>
   <g id="patch_13">
    <path d="M 774.131644 318.04 
L 803.711401 318.04 
L 803.711401 318.04 
L 774.131644 318.04 
z
" clip-path="url(#pf7b8ba16aa)" style="fill: #d3d3d3"/>
   </g>
   <g id="patch_14">
    <path d="M 816.388439 318.04 
L 845.968195 318.04 
L 845.968195 318.04 
L 816.388439 318.04 
z
" clip-path="url(#pf7b8ba16aa)" style="fill: #d3d3d3"/>
   </g>
   <g id="patch_15">
    <path d="M 858.645234 318.04 
L 888.22499 318.04 
L 888.22499 318.04 
L 858.645234 318.04 
z
" clip-path="url(#pf7b8ba16aa)" style="fill: #d3d3d3"/>
   </g>
   <g id="patch_16">
    <path d="M 900.902028 318.04 
L 930.481785 318.04 
L 930.481785 318.04 
L 900.902028 318.04 
z
" clip-path="url(#pf7b8ba16aa)" style="fill: #d3d3d3"/>
   </g>
   <g id="patch_17">
    <path d="M 943.158823 318.04 
L 972.73858 318.04 
L 972.73858 318.04 
L 943.158823 318.04 
z
" clip-path="url(#pf7b8ba16aa)" style="fill: #d3d3d3"/>
   </g>
   <g id="patch_18">
    <path d="M 562.84767 233.254634 
L 592.427427 233.254634 
L 592.427427 50.64 
L 562.84767 50.64 
z
" clip-path="url(#pf7b8ba16aa)" style="fill: #4682b4"/>
   </g>
   <g id="patch_19">
    <path d="M 605.104465 313.148537 
L 634.684222 313.148537 
L 634.684222 89.771707 
L 605.104465 89.771707 
z
" clip-path="url(#pf7b8ba16aa)" style="fill: #4682b4"/>
   </g>
   <g id="patch_20">
    <path d="M 647.36126 318.04 
L 676.941016 318.04 
L 676.941016 179.448537 
L 647.36126 179.448537 
z
" clip-path="url(#pf7b8ba16aa)" style="fill: #4682b4"/>
   </g>
   <g id="patch_21">
    <path d="M 689.618055 318.04 
L 719.197811 318.04 
L 719.197811 233.254634 
L 689.618055 233.254634 
z
" clip-path="url(#pf7b8ba16aa)" style="fill: #4682b4"/>
   </g>
   <g id="patch_22">
    <path d="M 731.874849 318.04 
L 761.454606 318.04 
L 761.454606 318.04 
L 731.874849 318.04 
z
" clip-path="url(#pf7b8ba16aa)" style="fill: #4682b4"/>
   </g>
   <g id="patch_23">
    <path d="M 774.131644 318.04 
L 803.711401 318.04 
L 803.711401 318.04 
L 774.131644 318.04 
z
" clip-path="url(#pf7b8ba16aa)" style="fill: #4682b4"/>
   </g>
   <g id="patch_24">
    <path d="M 816.388439 318.04 
L 845.968195 318.04 
L 845.968195 318.04 
L 816.388439 318.04 
z
" clip-path="url(#pf7b8ba16aa)" style="fill: #4682b4"/>
   </g>
   <g id="patch_25">
    <path d="M 858.645234 318.04 
L 888.22499 318.04 
L 888.22499 318.04 
L 858.645234 318.04 
z
" clip-path="url(#pf7b8ba16aa)" style="fill: #4682b4"/>
   </g>
   <g id="patch_26">
    <path d="M 900.902028 318.04 
L 930.481785 318.04 
L 930.481785 318.04 
L 900.902028 318.04 
z
" clip-path="url(#pf7b8ba16aa)" style="fill: #4682b4"/>
   </g>
   <g id="patch_27">
    <path d="M 943.158823 318.04 
L 972.73858 318.04 
L 972.73858 318.04 
L 943.158823 318.04 
z
" clip-path="url(#pf7b8ba16aa)" style="fill: #4682b4"/>
   </g>
   <g id="patch_28">
    <path d="M 562.84767 50.64 
L 592.427427 50.64 
L 592.427427 50.64 
L 562.84767 50.64 
z
" clip-path="url(#pf7b8ba16aa)" style="fill: #ff8c00"/>
   </g>
   <g id="patch_29">
    <path d="M 605.104465 89.771707 
L 634.684222 89.771707 
L 634.684222 50.64 
L 605.104465 50.64 
z
" clip-path="url(#pf7b8ba16aa)" style="fill: #ff8c00"/>
   </g>
   <g id="patch_30">
    <path d="M 647.36126 179.448537 
L 676.941016 179.448537 
L 676.941016 50.64 
L 647.36126 50.64 
z
" clip-path="url(#pf7b8ba16aa)" style="fill: #ff8c00"/>
   </g>
   <g id="patch_31">
    <path d="M 689.618055 233.254634 
L 719.197811 233.254634 
L 719.197811 50.64 
L 689.618055 50.64 
z
" clip-path="url(#pf7b8ba16aa)" style="fill: #ff8c00"/>
   </g>
   <g id="patch_32">
    <path d="M 731.874849 318.04 
L 761.454606 318.04 
L 761.454606 50.64 
L 731.874849 50.64 
z
" clip-path="url(#pf7b8ba16aa)" style="fill: #ff8c00"/>
   </g>
   <g id="patch_33">
    <path d="M 774.131644 318.04 
L 803.711401 318.04 
L 803.711401 50.64 
L 774.131644 50.64 
z
" clip-path="url(#pf7b8ba16aa)" style="fill: #ff8c00"/>
   </g>
   <g id="patch_34">
    <path d="M 816.388439 318.04 
L 845.968195 318.04 
L 845.968195 65.31439 
L 816.388439 65.31439 
z
" clip-path="url(#pf7b8ba16aa)" style="fill: #ff8c00"/>
   </g>
   <g id="patch_35">
    <path d="M 858.645234 318.04 
L 888.22499 318.04 
L 888.22499 143.577805 
L 858.645234 143.577805 
z
" clip-path="url(#pf7b8ba16aa)" style="fill: #ff8c00"/>
   </g>
   <g id="patch_36">
    <path d="M 900.902028 318.04 
L 930.481785 318.04 
L 930.481785 189.231463 
L 900.902028 189.231463 
z
" clip-path="url(#pf7b8ba16aa)" style="fill: #ff8c00"/>
   </g>
   <g id="patch_37">
    <path d="M 943.158823 318.04 
L 972.73858 318.04 
L 972.73858 306.626585 
L 943.158823 306.626585 
z
" clip-path="url(#pf7b8ba16aa)" style="fill: #ff8c00"/>
   </g>
   <g id="patch_38">
    <path d="M 562.84767 50.64 
L 592.427427 50.64 
L 592.427427 50.64 
L 562.84767 50.64 
z
" clip-path="url(#pf7b8ba16aa)" style="fill: #dc143c"/>
   </g>
   <g id="patch_39">
    <path d="M 605.104465 50.64 
L 634.684222 50.64 
L 634.684222 50.64 
L 605.104465 50.64 
z
" clip-path="url(#pf7b8ba16aa)" style="fill: #dc143c"/>
   </g>
   <g id="patch_40">
    <path d="M 647.36126 50.64 
L 676.941016 50.64 
L 676.941016 50.64 
L 647.36126 50.64 
z
" clip-path="url(#pf7b8ba16aa)" style="fill: #dc143c"/>
   </g>
   <g id="patch_41">
    <path d="M 689.618055 50.64 
L 719.197811 50.64 
L 719.197811 50.64 
L 689.618055 50.64 
z
" clip-path="url(#pf7b8ba16aa)" style="fill: #dc143c"/>
   </g>
   <g id="patch_42">
    <path d="M 731.874849 50.64 
L 761.454606 50.64 
L 761.454606 50.64 
L 731.874849 50.64 
z
" clip-path="url(#pf7b8ba16aa)" style="fill: #dc143c"/>
   </g>
   <g id="patch_43">
    <path d="M 774.131644 50.64 
L 803.711401 50.64 
L 803.711401 50.64 
L 774.131644 50.64 
z
" clip-path="url(#pf7b8ba16aa)" style="fill: #dc143c"/>
   </g>
   <g id="patch_44">
    <path d="M 816.388439 65.31439 
L 845.968195 65.31439 
L 845.968195 50.64 
L 816.388439 50.64 
z
" clip-path="url(#pf7b8ba16aa)" style="fill: #dc143c"/>
   </g>
   <g id="patch_45">
    <path d="M 858.645234 143.577805 
L 888.22499 143.577805 
L 888.22499 50.64 
L 858.645234 50.64 
z
" clip-path="url(#pf7b8ba16aa)" style="fill: #dc143c"/>
   </g>
   <g id="patch_46">
    <path d="M 900.902028 189.231463 
L 930.481785 189.231463 
L 930.481785 50.64 
L 900.902028 50.64 
z
" clip-path="url(#pf7b8ba16aa)" style="fill: #dc143c"/>
   </g>
   <g id="patch_47">
    <path d="M 943.158823 306.626585 
L 972.73858 306.626585 
L 972.73858 50.64 
L 943.158823 50.64 
z
" clip-path="url(#pf7b8ba16aa)" style="fill: #dc143c"/>
   </g>
   <g id="matplotlib.axis_3">
    <g id="xtick_5">
     <g id="line2d_52">
      <g>
       <use xlink:href="#m9bbd702a76" x="577.637549" y="318.04" style="stroke: #000000; stroke-width: 0.8"/>
      </g>
     </g>
     <g id="text_12">
      <!-- 10% -->
      <g transform="translate(566.524267 332.638437) scale(0.1 -0.1)">
       <defs>
        <path id="DejaVuSans-31" d="M 794 531 
L 1825 531 
L 1825 4091 
L 703 3866 
L 703 4441 
L 1819 4666 
L 2450 4666 
L 2450 531 
L 3481 531 
L 3481 0 
L 794 0 
L 794 531 
z
" transform="scale(0.015625)"/>
       </defs>
       <use xlink:href="#DejaVuSans-31"/>
       <use xlink:href="#DejaVuSans-30" transform="translate(63.623047 0)"/>
       <use xlink:href="#DejaVuSans-25" transform="translate(127.246094 0)"/>
      </g>
     </g>
    </g>
    <g id="xtick_6">
     <g id="line2d_53">
      <g>
       <use xlink:href="#m9bbd702a76" x="619.894343" y="318.04" style="stroke: #000000; stroke-width: 0.8"/>
      </g>
     </g>
     <g id="text_13">
      <!-- 20% -->
      <g transform="translate(608.781062 332.638437) scale(0.1 -0.1)">
       <use xlink:href="#DejaVuSans-32"/>
       <use xlink:href="#DejaVuSans-30" transform="translate(63.623047 0)"/>
       <use xlink:href="#DejaVuSans-25" transform="translate(127.246094 0)"/>
      </g>
     </g>
    </g>
    <g id="xtick_7">
     <g id="line2d_54">
      <g>
       <use xlink:href="#m9bbd702a76" x="662.151138" y="318.04" style="stroke: #000000; stroke-width: 0.8"/>
      </g>
     </g>
     <g id="text_14">
      <!-- 30% -->
      <g transform="translate(651.037857 332.638437) scale(0.1 -0.1)">
       <defs>
        <path id="DejaVuSans-33" d="M 2597 2516 
Q 3050 2419 3304 2112 
Q 3559 1806 3559 1356 
Q 3559 666 3084 287 
Q 2609 -91 1734 -91 
Q 1441 -91 1130 -33 
Q 819 25 488 141 
L 488 750 
Q 750 597 1062 519 
Q 1375 441 1716 441 
Q 2309 441 2620 675 
Q 2931 909 2931 1356 
Q 2931 1769 2642 2001 
Q 2353 2234 1838 2234 
L 1294 2234 
L 1294 2753 
L 1863 2753 
Q 2328 2753 2575 2939 
Q 2822 3125 2822 3475 
Q 2822 3834 2567 4026 
Q 2313 4219 1838 4219 
Q 1578 4219 1281 4162 
Q 984 4106 628 3988 
L 628 4550 
Q 988 4650 1302 4700 
Q 1616 4750 1894 4750 
Q 2613 4750 3031 4423 
Q 3450 4097 3450 3541 
Q 3450 3153 3228 2886 
Q 3006 2619 2597 2516 
z
" transform="scale(0.015625)"/>
       </defs>
       <use xlink:href="#DejaVuSans-33"/>
       <use xlink:href="#DejaVuSans-30" transform="translate(63.623047 0)"/>
       <use xlink:href="#DejaVuSans-25" transform="translate(127.246094 0)"/>
      </g>
     </g>
    </g>
    <g id="xtick_8">
     <g id="line2d_55">
      <g>
       <use xlink:href="#m9bbd702a76" x="704.407933" y="318.04" style="stroke: #000000; stroke-width: 0.8"/>
      </g>
     </g>
     <g id="text_15">
      <!-- 40% -->
      <g transform="translate(693.294652 332.638437) scale(0.1 -0.1)">
       <use xlink:href="#DejaVuSans-34"/>
       <use xlink:href="#DejaVuSans-30" transform="translate(63.623047 0)"/>
       <use xlink:href="#DejaVuSans-25" transform="translate(127.246094 0)"/>
      </g>
     </g>
    </g>
    <g id="xtick_9">
     <g id="line2d_56">
      <g>
       <use xlink:href="#m9bbd702a76" x="746.664728" y="318.04" style="stroke: #000000; stroke-width: 0.8"/>
      </g>
     </g>
     <g id="text_16">
      <!-- 50% -->
      <g transform="translate(735.551446 332.638437) scale(0.1 -0.1)">
       <defs>
        <path id="DejaVuSans-35" d="M 691 4666 
L 3169 4666 
L 3169 4134 
L 1269 4134 
L 1269 2991 
Q 1406 3038 1543 3061 
Q 1681 3084 1819 3084 
Q 2600 3084 3056 2656 
Q 3513 2228 3513 1497 
Q 3513 744 3044 326 
Q 2575 -91 1722 -91 
Q 1428 -91 1123 -41 
Q 819 9 494 109 
L 494 744 
Q 775 591 1075 516 
Q 1375 441 1709 441 
Q 2250 441 2565 725 
Q 2881 1009 2881 1497 
Q 2881 1984 2565 2268 
Q 2250 2553 1709 2553 
Q 1456 2553 1204 2497 
Q 953 2441 691 2322 
L 691 4666 
z
" transform="scale(0.015625)"/>
       </defs>
       <use xlink:href="#DejaVuSans-35"/>
       <use xlink:href="#DejaVuSans-30" transform="translate(63.623047 0)"/>
       <use xlink:href="#DejaVuSans-25" transform="translate(127.246094 0)"/>
      </g>
     </g>
    </g>
    <g id="xtick_10">
     <g id="line2d_57">
      <g>
       <use xlink:href="#m9bbd702a76" x="788.921522" y="318.04" style="stroke: #000000; stroke-width: 0.8"/>
      </g>
     </g>
     <g id="text_17">
      <!-- 60% -->
      <g transform="translate(777.808241 332.638437) scale(0.1 -0.1)">
       <use xlink:href="#DejaVuSans-36"/>
       <use xlink:href="#DejaVuSans-30" transform="translate(63.623047 0)"/>
       <use xlink:href="#DejaVuSans-25" transform="translate(127.246094 0)"/>
      </g>
     </g>
    </g>
    <g id="xtick_11">
     <g id="line2d_58">
      <g>
       <use xlink:href="#m9bbd702a76" x="831.178317" y="318.04" style="stroke: #000000; stroke-width: 0.8"/>
      </g>
     </g>
     <g id="text_18">
      <!-- 70% -->
      <g transform="translate(820.065036 332.638437) scale(0.1 -0.1)">
       <defs>
        <path id="DejaVuSans-37" d="M 525 4666 
L 3525 4666 
L 3525 4397 
L 1831 0 
L 1172 0 
L 2766 4134 
L 525 4134 
L 525 4666 
z
" transform="scale(0.015625)"/>
       </defs>
       <use xlink:href="#DejaVuSans-37"/>
       <use xlink:href="#DejaVuSans-30" transform="translate(63.623047 0)"/>
       <use xlink:href="#DejaVuSans-25" transform="translate(127.246094 0)"/>
      </g>
     </g>
    </g>
    <g id="xtick_12">
     <g id="line2d_59">
      <g>
       <use xlink:href="#m9bbd702a76" x="873.435112" y="318.04" style="stroke: #000000; stroke-width: 0.8"/>
      </g>
     </g>
     <g id="text_19">
      <!-- 80% -->
      <g transform="translate(862.321831 332.638437) scale(0.1 -0.1)">
       <use xlink:href="#DejaVuSans-38"/>
       <use xlink:href="#DejaVuSans-30" transform="translate(63.623047 0)"/>
       <use xlink:href="#DejaVuSans-25" transform="translate(127.246094 0)"/>
      </g>
     </g>
    </g>
    <g id="xtick_13">
     <g id="line2d_60">
      <g>
       <use xlink:href="#m9bbd702a76" x="915.691907" y="318.04" style="stroke: #000000; stroke-width: 0.8"/>
      </g>
     </g>
     <g id="text_20">
      <!-- 90% -->
      <g transform="translate(904.578625 332.638437) scale(0.1 -0.1)">
       <defs>
        <path id="DejaVuSans-39" d="M 703 97 
L 703 672 
Q 941 559 1184 500 
Q 1428 441 1663 441 
Q 2288 441 2617 861 
Q 2947 1281 2994 2138 
Q 2813 1869 2534 1725 
Q 2256 1581 1919 1581 
Q 1219 1581 811 2004 
Q 403 2428 403 3163 
Q 403 3881 828 4315 
Q 1253 4750 1959 4750 
Q 2769 4750 3195 4129 
Q 3622 3509 3622 2328 
Q 3622 1225 3098 567 
Q 2575 -91 1691 -91 
Q 1453 -91 1209 -44 
Q 966 3 703 97 
z
M 1959 2075 
Q 2384 2075 2632 2365 
Q 2881 2656 2881 3163 
Q 2881 3666 2632 3958 
Q 2384 4250 1959 4250 
Q 1534 4250 1286 3958 
Q 1038 3666 1038 3163 
Q 1038 2656 1286 2365 
Q 1534 2075 1959 2075 
z
" transform="scale(0.015625)"/>
       </defs>
       <use xlink:href="#DejaVuSans-39"/>
       <use xlink:href="#DejaVuSans-30" transform="translate(63.623047 0)"/>
       <use xlink:href="#DejaVuSans-25" transform="translate(127.246094 0)"/>
      </g>
     </g>
    </g>
    <g id="xtick_14">
     <g id="line2d_61">
      <g>
       <use xlink:href="#m9bbd702a76" x="957.948701" y="318.04" style="stroke: #000000; stroke-width: 0.8"/>
      </g>
     </g>
     <g id="text_21">
      <!-- 100% -->
      <g transform="translate(943.65417 332.638437) scale(0.1 -0.1)">
       <use xlink:href="#DejaVuSans-31"/>
       <use xlink:href="#DejaVuSans-30" transform="translate(63.623047 0)"/>
       <use xlink:href="#DejaVuSans-30" transform="translate(127.246094 0)"/>
       <use xlink:href="#DejaVuSans-25" transform="translate(190.869141 0)"/>
      </g>
     </g>
    </g>
    <g id="text_22">
     <!-- Prefix ratio -->
     <g transform="translate(740.620469 346.316562) scale(0.1 -0.1)">
      <defs>
       <path id="DejaVuSans-50" d="M 1259 4147 
L 1259 2394 
L 2053 2394 
Q 2494 2394 2734 2622 
Q 2975 2850 2975 3272 
Q 2975 3691 2734 3919 
Q 2494 4147 2053 4147 
L 1259 4147 
z
M 628 4666 
L 2053 4666 
Q 2838 4666 3239 4311 
Q 3641 3956 3641 3272 
Q 3641 2581 3239 2228 
Q 2838 1875 2053 1875 
L 1259 1875 
L 1259 0 
L 628 0 
L 628 4666 
z
" transform="scale(0.015625)"/>
      </defs>
      <use xlink:href="#DejaVuSans-50"/>
      <use xlink:href="#DejaVuSans-72" transform="translate(58.552734 0)"/>
      <use xlink:href="#DejaVuSans-65" transform="translate(97.416016 0)"/>
      <use xlink:href="#DejaVuSans-66" transform="translate(158.939453 0)"/>
      <use xlink:href="#DejaVuSans-69" transform="translate(194.144531 0)"/>
      <use xlink:href="#DejaVuSans-78" transform="translate(221.927734 0)"/>
      <use xlink:href="#DejaVuSans-20" transform="translate(281.107422 0)"/>
      <use xlink:href="#DejaVuSans-72" transform="translate(312.894531 0)"/>
      <use xlink:href="#DejaVuSans-61" transform="translate(354.007812 0)"/>
      <use xlink:href="#DejaVuSans-74" transform="translate(415.287109 0)"/>
      <use xlink:href="#DejaVuSans-69" transform="translate(454.496094 0)"/>
      <use xlink:href="#DejaVuSans-6f" transform="translate(482.279297 0)"/>
     </g>
    </g>
   </g>
   <g id="matplotlib.axis_4">
    <g id="ytick_6">
     <g id="line2d_62">
      <path d="M 542.353125 318.04 
L 993.233125 318.04 
" clip-path="url(#pf7b8ba16aa)" style="fill: none; stroke: #b0b0b0; stroke-opacity: 0.3; stroke-width: 0.8; stroke-linecap: square"/>
     </g>
     <g id="line2d_63">
      <g>
       <use xlink:href="#mda6b22cb7a" x="542.353125" y="318.04" style="stroke: #000000; stroke-width: 0.8"/>
      </g>
     </g>
     <g id="text_23">
      <!-- 0 -->
      <g transform="translate(528.990625 321.839219) scale(0.1 -0.1)">
       <use xlink:href="#DejaVuSans-30"/>
      </g>
     </g>
    </g>
    <g id="ytick_7">
     <g id="line2d_64">
      <path d="M 542.353125 264.56 
L 993.233125 264.56 
" clip-path="url(#pf7b8ba16aa)" style="fill: none; stroke: #b0b0b0; stroke-opacity: 0.3; stroke-width: 0.8; stroke-linecap: square"/>
     </g>
     <g id="line2d_65">
      <g>
       <use xlink:href="#mda6b22cb7a" x="542.353125" y="264.56" style="stroke: #000000; stroke-width: 0.8"/>
      </g>
     </g>
     <g id="text_24">
      <!-- 20 -->
      <g transform="translate(522.628125 268.359219) scale(0.1 -0.1)">
       <use xlink:href="#DejaVuSans-32"/>
       <use xlink:href="#DejaVuSans-30" transform="translate(63.623047 0)"/>
      </g>
     </g>
    </g>
    <g id="ytick_8">
     <g id="line2d_66">
      <path d="M 542.353125 211.08 
L 993.233125 211.08 
" clip-path="url(#pf7b8ba16aa)" style="fill: none; stroke: #b0b0b0; stroke-opacity: 0.3; stroke-width: 0.8; stroke-linecap: square"/>
     </g>
     <g id="line2d_67">
      <g>
       <use xlink:href="#mda6b22cb7a" x="542.353125" y="211.08" style="stroke: #000000; stroke-width: 0.8"/>
      </g>
     </g>
     <g id="text_25">
      <!-- 40 -->
      <g transform="translate(522.628125 214.879219) scale(0.1 -0.1)">
       <use xlink:href="#DejaVuSans-34"/>
       <use xlink:href="#DejaVuSans-30" transform="translate(63.623047 0)"/>
      </g>
     </g>
    </g>
    <g id="ytick_9">
     <g id="line2d_68">
      <path d="M 542.353125 157.6 
L 993.233125 157.6 
" clip-path="url(#pf7b8ba16aa)" style="fill: none; stroke: #b0b0b0; stroke-opacity: 0.3; stroke-width: 0.8; stroke-linecap: square"/>
     </g>
     <g id="line2d_69">
      <g>
       <use xlink:href="#mda6b22cb7a" x="542.353125" y="157.6" style="stroke: #000000; stroke-width: 0.8"/>
      </g>
     </g>
     <g id="text_26">
      <!-- 60 -->
      <g transform="translate(522.628125 161.399219) scale(0.1 -0.1)">
       <use xlink:href="#DejaVuSans-36"/>
       <use xlink:href="#DejaVuSans-30" transform="translate(63.623047 0)"/>
      </g>
     </g>
    </g>
    <g id="ytick_10">
     <g id="line2d_70">
      <path d="M 542.353125 104.12 
L 993.233125 104.12 
" clip-path="url(#pf7b8ba16aa)" style="fill: none; stroke: #b0b0b0; stroke-opacity: 0.3; stroke-width: 0.8; stroke-linecap: square"/>
     </g>
     <g id="line2d_71">
      <g>
       <use xlink:href="#mda6b22cb7a" x="542.353125" y="104.12" style="stroke: #000000; stroke-width: 0.8"/>
      </g>
     </g>
     <g id="text_27">
      <!-- 80 -->
      <g transform="translate(522.628125 107.919219) scale(0.1 -0.1)">
       <use xlink:href="#DejaVuSans-38"/>
       <use xlink:href="#DejaVuSans-30" transform="translate(63.623047 0)"/>
      </g>
     </g>
    </g>
    <g id="ytick_11">
     <g id="line2d_72">
      <path d="M 542.353125 50.64 
L 993.233125 50.64 
" clip-path="url(#pf7b8ba16aa)" style="fill: none; stroke: #b0b0b0; stroke-opacity: 0.3; stroke-width: 0.8; stroke-linecap: square"/>
     </g>
     <g id="line2d_73">
      <g>
       <use xlink:href="#mda6b22cb7a" x="542.353125" y="50.64" style="stroke: #000000; stroke-width: 0.8"/>
      </g>
     </g>
     <g id="text_28">
      <!-- 100 -->
      <g transform="translate(516.265625 54.439219) scale(0.1 -0.1)">
       <use xlink:href="#DejaVuSans-31"/>
       <use xlink:href="#DejaVuSans-30" transform="translate(63.623047 0)"/>
       <use xlink:href="#DejaVuSans-30" transform="translate(127.246094 0)"/>
      </g>
     </g>
    </g>
    <g id="text_29">
     <!-- % of runs with cutoff in zone -->
     <g transform="translate(510.185938 255.993906) rotate(-90) scale(0.1 -0.1)">
      <use xlink:href="#DejaVuSans-25"/>
      <use xlink:href="#DejaVuSans-20" transform="translate(95.019531 0)"/>
      <use xlink:href="#DejaVuSans-6f" transform="translate(126.806641 0)"/>
      <use xlink:href="#DejaVuSans-66" transform="translate(187.988281 0)"/>
      <use xlink:href="#DejaVuSans-20" transform="translate(223.193359 0)"/>
      <use xlink:href="#DejaVuSans-72" transform="translate(254.980469 0)"/>
      <use xlink:href="#DejaVuSans-75" transform="translate(296.09375 0)"/>
      <use xlink:href="#DejaVuSans-6e" transform="translate(359.472656 0)"/>
      <use xlink:href="#DejaVuSans-73" transform="translate(422.851562 0)"/>
      <use xlink:href="#DejaVuSans-20" transform="translate(474.951172 0)"/>
      <use xlink:href="#DejaVuSans-77" transform="translate(506.738281 0)"/>
      <use xlink:href="#DejaVuSans-69" transform="translate(588.525391 0)"/>
      <use xlink:href="#DejaVuSans-74" transform="translate(616.308594 0)"/>
      <use xlink:href="#DejaVuSans-68" transform="translate(655.517578 0)"/>
      <use xlink:href="#DejaVuSans-20" transform="translate(718.896484 0)"/>
      <use xlink:href="#DejaVuSans-63" transform="translate(750.683594 0)"/>
      <use xlink:href="#DejaVuSans-75" transform="translate(805.664062 0)"/>
      <use xlink:href="#DejaVuSans-74" transform="translate(869.042969 0)"/>
      <use xlink:href="#DejaVuSans-6f" transform="translate(908.251953 0)"/>
      <use xlink:href="#DejaVuSans-66" transform="translate(969.433594 0)"/>
      <use xlink:href="#DejaVuSans-66" transform="translate(1004.638672 0)"/>
      <use xlink:href="#DejaVuSans-20" transform="translate(1039.84375 0)"/>
      <use xlink:href="#DejaVuSans-69" transform="translate(1071.630859 0)"/>
      <use xlink:href="#DejaVuSans-6e" transform="translate(1099.414062 0)"/>
      <use xlink:href="#DejaVuSans-20" transform="translate(1162.792969 0)"/>
      <use xlink:href="#DejaVuSans-7a" transform="translate(1194.580078 0)"/>
      <use xlink:href="#DejaVuSans-6f" transform="translate(1247.070312 0)"/>
      <use xlink:href="#DejaVuSans-6e" transform="translate(1308.251953 0)"/>
      <use xlink:href="#DejaVuSans-65" transform="translate(1371.630859 0)"/>
     </g>
    </g>
   </g>
   <g id="patch_48">
    <path d="M 542.353125 318.04 
L 542.353125 50.64 
" style="fill: none; stroke: #000000; stroke-width: 0.8; stroke-linejoin: miter; stroke-linecap: square"/>
   </g>
   <g id="patch_49">
    <path d="M 993.233125 318.04 
L 993.233125 50.64 
" style="fill: none; stroke: #000000; stroke-width: 0.8; stroke-linejoin: miter; stroke-linecap: square"/>
   </g>
   <g id="patch_50">
    <path d="M 542.353125 318.04 
L 993.233125 318.04 
" style="fill: none; stroke: #000000; stroke-width: 0.8; stroke-linejoin: miter; stroke-linecap: square"/>
   </g>
   <g id="patch_51">
    <path d="M 542.353125 50.64 
L 993.233125 50.64 
" style="fill: none; stroke: #000000; stroke-width: 0.8; stroke-linejoin: miter; stroke-linecap: square"/>
   </g>
   <g id="text_30">
    <!-- Where does prefix cutoff land? -->
    <g transform="translate(675.765313 44.64) scale(0.12 -0.12)">
     <defs>
      <path id="DejaVuSans-57" d="M 213 4666 
L 850 4666 
L 1831 722 
L 2809 4666 
L 3519 4666 
L 4500 722 
L 5478 4666 
L 6119 4666 
L 4947 0 
L 4153 0 
L 3169 4050 
L 2175 0 
L 1381 0 
L 213 4666 
z
" transform="scale(0.015625)"/>
      <path id="DejaVuSans-70" d="M 1159 525 
L 1159 -1331 
L 581 -1331 
L 581 3500 
L 1159 3500 
L 1159 2969 
Q 1341 3281 1617 3432 
Q 1894 3584 2278 3584 
Q 2916 3584 3314 3078 
Q 3713 2572 3713 1747 
Q 3713 922 3314 415 
Q 2916 -91 2278 -91 
Q 1894 -91 1617 61 
Q 1341 213 1159 525 
z
M 3116 1747 
Q 3116 2381 2855 2742 
Q 2594 3103 2138 3103 
Q 1681 3103 1420 2742 
Q 1159 2381 1159 1747 
Q 1159 1113 1420 752 
Q 1681 391 2138 391 
Q 2594 391 2855 752 
Q 3116 1113 3116 1747 
z
" transform="scale(0.015625)"/>
      <path id="DejaVuSans-3f" d="M 1222 794 
L 1856 794 
L 1856 0 
L 1222 0 
L 1222 794 
z
M 1838 1253 
L 1241 1253 
L 1241 1734 
Q 1241 2050 1328 2253 
Q 1416 2456 1697 2725 
L 1978 3003 
Q 2156 3169 2236 3316 
Q 2316 3463 2316 3616 
Q 2316 3894 2111 4066 
Q 1906 4238 1569 4238 
Q 1322 4238 1042 4128 
Q 763 4019 459 3809 
L 459 4397 
Q 753 4575 1054 4662 
Q 1356 4750 1678 4750 
Q 2253 4750 2601 4447 
Q 2950 4144 2950 3647 
Q 2950 3409 2837 3195 
Q 2725 2981 2444 2713 
L 2169 2444 
Q 2022 2297 1961 2214 
Q 1900 2131 1875 2053 
Q 1856 1988 1847 1894 
Q 1838 1800 1838 1638 
L 1838 1253 
z
" transform="scale(0.015625)"/>
     </defs>
     <use xlink:href="#DejaVuSans-57"/>
     <use xlink:href="#DejaVuSans-68" transform="translate(98.876953 0)"/>
     <use xlink:href="#DejaVuSans-65" transform="translate(162.255859 0)"/>
     <use xlink:href="#DejaVuSans-72" transform="translate(223.779297 0)"/>
     <use xlink:href="#DejaVuSans-65" transform="translate(262.642578 0)"/>
     <use xlink:href="#DejaVuSans-20" transform="translate(324.166016 0)"/>
     <use xlink:href="#DejaVuSans-64" transform="translate(355.953125 0)"/>
     <use xlink:href="#DejaVuSans-6f" transform="translate(419.429688 0)"/>
     <use xlink:href="#DejaVuSans-65" transform="translate(480.611328 0)"/>
     <use xlink:href="#DejaVuSans-73" transform="translate(542.134766 0)"/>
     <use xlink:href="#DejaVuSans-20" transform="translate(594.234375 0)"/>
     <use xlink:href="#DejaVuSans-70" transform="translate(626.021484 0)"/>
     <use xlink:href="#DejaVuSans-72" transform="translate(689.498047 0)"/>
     <use xlink:href="#DejaVuSans-65" transform="translate(728.361328 0)"/>
     <use xlink:href="#DejaVuSans-66" transform="translate(789.884766 0)"/>
     <use xlink:href="#DejaVuSans-69" transform="translate(825.089844 0)"/>
     <use xlink:href="#DejaVuSans-78" transform="translate(852.873047 0)"/>
     <use xlink:href="#DejaVuSans-20" transform="translate(912.052734 0)"/>
     <use xlink:href="#DejaVuSans-63" transform="translate(943.839844 0)"/>
     <use xlink:href="#DejaVuSans-75" transform="translate(998.820312 0)"/>
     <use xlink:href="#DejaVuSans-74" transform="translate(1062.199219 0)"/>
     <use xlink:href="#DejaVuSans-6f" transform="translate(1101.408203 0)"/>
     <use xlink:href="#DejaVuSans-66" transform="translate(1162.589844 0)"/>
     <use xlink:href="#DejaVuSans-66" transform="translate(1197.794922 0)"/>
     <use xlink:href="#DejaVuSans-20" transform="translate(1233 0)"/>
     <use xlink:href="#DejaVuSans-6c" transform="translate(1264.787109 0)"/>
     <use xlink:href="#DejaVuSans-61" transform="translate(1292.570312 0)"/>
     <use xlink:href="#DejaVuSans-6e" transform="translate(1353.849609 0)"/>
     <use xlink:href="#DejaVuSans-64" transform="translate(1417.228516 0)"/>
     <use xlink:href="#DejaVuSans-3f" transform="translate(1480.705078 0)"/>
    </g>
   </g>
   <g id="legend_1">
    <g id="patch_52">
     <path d="M 915.464375 117.3525 
L 986.233125 117.3525 
Q 988.233125 117.3525 988.233125 115.3525 
L 988.233125 57.64 
Q 988.233125 55.64 986.233125 55.64 
L 915.464375 55.64 
Q 913.464375 55.64 913.464375 57.64 
L 913.464375 115.3525 
Q 913.464375 117.3525 915.464375 117.3525 
z
" style="fill: #ffffff; opacity: 0.8; stroke: #cccccc; stroke-linejoin: miter"/>
    </g>
    <g id="patch_53">
     <path d="M 917.464375 67.238437 
L 937.464375 67.238437 
L 937.464375 60.238437 
L 917.464375 60.238437 
z
" style="fill: #d3d3d3"/>
    </g>
    <g id="text_31">
     <!-- No-load -->
     <g transform="translate(945.464375 67.238437) scale(0.1 -0.1)">
      <use xlink:href="#DejaVuSans-4e"/>
      <use xlink:href="#DejaVuSans-6f" transform="translate(74.804688 0)"/>
      <use xlink:href="#DejaVuSans-2d" transform="translate(137.861328 0)"/>
      <use xlink:href="#DejaVuSans-6c" transform="translate(173.945312 0)"/>
      <use xlink:href="#DejaVuSans-6f" transform="translate(201.728516 0)"/>
      <use xlink:href="#DejaVuSans-61" transform="translate(262.910156 0)"/>
      <use xlink:href="#DejaVuSans-64" transform="translate(324.189453 0)"/>
     </g>
    </g>
    <g id="patch_54">
     <path d="M 917.464375 81.916562 
L 937.464375 81.916562 
L 937.464375 74.916562 
L 917.464375 74.916562 
z
" style="fill: #4682b4"/>
    </g>
    <g id="text_32">
     <!-- Entry -->
     <g transform="translate(945.464375 81.916562) scale(0.1 -0.1)">
      <use xlink:href="#DejaVuSans-45"/>
      <use xlink:href="#DejaVuSans-6e" transform="translate(63.183594 0)"/>
      <use xlink:href="#DejaVuSans-74" transform="translate(126.5625 0)"/>
      <use xlink:href="#DejaVuSans-72" transform="translate(165.771484 0)"/>
      <use xlink:href="#DejaVuSans-79" transform="translate(206.884766 0)"/>
     </g>
    </g>
    <g id="patch_55">
     <path d="M 917.464375 96.594687 
L 937.464375 96.594687 
L 937.464375 89.594687 
L 917.464375 89.594687 
z
" style="fill: #ff8c00"/>
    </g>
    <g id="text_33">
     <!-- Steady -->
     <g transform="translate(945.464375 96.594687) scale(0.1 -0.1)">
      <use xlink:href="#DejaVuSans-53"/>
      <use xlink:href="#DejaVuSans-74" transform="translate(63.476562 0)"/>
      <use xlink:href="#DejaVuSans-65" transform="translate(102.685547 0)"/>
      <use xlink:href="#DejaVuSans-61" transform="translate(164.208984 0)"/>
      <use xlink:href="#DejaVuSans-64" transform="translate(225.488281 0)"/>
      <use xlink:href="#DejaVuSans-79" transform="translate(288.964844 0)"/>
     </g>
    </g>
    <g id="patch_56">
     <path d="M 917.464375 111.272812 
L 937.464375 111.272812 
L 937.464375 104.272812 
L 917.464375 104.272812 
z
" style="fill: #dc143c"/>
    </g>
    <g id="text_34">
     <!-- Exit -->
     <g transform="translate(945.464375 111.272812) scale(0.1 -0.1)">
      <use xlink:href="#DejaVuSans-45"/>
      <use xlink:href="#DejaVuSans-78" transform="translate(63.183594 0)"/>
      <use xlink:href="#DejaVuSans-69" transform="translate(122.363281 0)"/>
      <use xlink:href="#DejaVuSans-74" transform="translate(150.146484 0)"/>
     </g>
    </g>
   </g>
  </g>
  <g id="text_35">
   <!-- Prefix Ratio → Signal Zone Mapping -->
   <g transform="translate(384.888672 17.077969) scale(0.13 -0.13)">
    <defs>
     <path id="DejaVuSans-52" d="M 2841 2188 
Q 3044 2119 3236 1894 
Q 3428 1669 3622 1275 
L 4263 0 
L 3584 0 
L 2988 1197 
Q 2756 1666 2539 1819 
Q 2322 1972 1947 1972 
L 1259 1972 
L 1259 0 
L 628 0 
L 628 4666 
L 2053 4666 
Q 2853 4666 3247 4331 
Q 3641 3997 3641 3322 
Q 3641 2881 3436 2590 
Q 3231 2300 2841 2188 
z
M 1259 4147 
L 1259 2491 
L 2053 2491 
Q 2509 2491 2742 2702 
Q 2975 2913 2975 3322 
Q 2975 3731 2742 3939 
Q 2509 4147 2053 4147 
L 1259 4147 
z
" transform="scale(0.015625)"/>
     <path id="DejaVuSans-2192" d="M 5050 2147 
L 5050 1866 
L 3822 638 
L 3447 1013 
L 4175 1741 
L 366 1741 
L 366 2272 
L 4175 2272 
L 3447 3000 
L 3822 3375 
L 5050 2147 
z
" transform="scale(0.015625)"/>
     <path id="DejaVuSans-4d" d="M 628 4666 
L 1569 4666 
L 2759 1491 
L 3956 4666 
L 4897 4666 
L 4897 0 
L 4281 0 
L 4281 4097 
L 3078 897 
L 2444 897 
L 1241 4097 
L 1241 0 
L 628 0 
L 628 4666 
z
" transform="scale(0.015625)"/>
    </defs>
    <use xlink:href="#DejaVuSans-50"/>
    <use xlink:href="#DejaVuSans-72" transform="translate(58.552734 0)"/>
    <use xlink:href="#DejaVuSans-65" transform="translate(97.416016 0)"/>
    <use xlink:href="#DejaVuSans-66" transform="translate(158.939453 0)"/>
    <use xlink:href="#DejaVuSans-69" transform="translate(194.144531 0)"/>
    <use xlink:href="#DejaVuSans-78" transform="translate(221.927734 0)"/>
    <use xlink:href="#DejaVuSans-20" transform="translate(281.107422 0)"/>
    <use xlink:href="#DejaVuSans-52" transform="translate(312.894531 0)"/>
    <use xlink:href="#DejaVuSans-61" transform="translate(380.126953 0)"/>
    <use xlink:href="#DejaVuSans-74" transform="translate(441.40625 0)"/>
    <use xlink:href="#DejaVuSans-69" transform="translate(480.615234 0)"/>
    <use xlink:href="#DejaVuSans-6f" transform="translate(508.398438 0)"/>
    <use xlink:href="#DejaVuSans-20" transform="translate(569.580078 0)"/>
    <use xlink:href="#DejaVuSans-2192" transform="translate(601.367188 0)"/>
    <use xlink:href="#DejaVuSans-20" transform="translate(685.15625 0)"/>
    <use xlink:href="#DejaVuSans-53" transform="translate(716.943359 0)"/>
    <use xlink:href="#DejaVuSans-69" transform="translate(780.419922 0)"/>
    <use xlink:href="#DejaVuSans-67" transform="translate(808.203125 0)"/>
    <use xlink:href="#DejaVuSans-6e" transform="translate(871.679688 0)"/>
    <use xlink:href="#DejaVuSans-61" transform="translate(935.058594 0)"/>
    <use xlink:href="#DejaVuSans-6c" transform="translate(996.337891 0)"/>
    <use xlink:href="#DejaVuSans-20" transform="translate(1024.121094 0)"/>
    <use xlink:href="#DejaVuSans-5a" transform="translate(1055.908203 0)"/>
    <use xlink:href="#DejaVuSans-6f" transform="translate(1124.414062 0)"/>
    <use xlink:href="#DejaVuSans-6e" transform="translate(1185.595703 0)"/>
    <use xlink:href="#DejaVuSans-65" transform="translate(1248.974609 0)"/>
    <use xlink:href="#DejaVuSans-20" transform="translate(1310.498047 0)"/>
    <use xlink:href="#DejaVuSans-4d" transform="translate(1342.285156 0)"/>
    <use xlink:href="#DejaVuSans-61" transform="translate(1428.564453 0)"/>
    <use xlink:href="#DejaVuSans-70" transform="translate(1489.84375 0)"/>
    <use xlink:href="#DejaVuSans-70" transform="translate(1553.320312 0)"/>
    <use xlink:href="#DejaVuSans-69" transform="translate(1616.796875 0)"/>
    <use xlink:href="#DejaVuSans-6e" transform="translate(1644.580078 0)"/>
    <use xlink:href="#DejaVuSans-67" transform="translate(1707.958984 0)"/>
   </g>
  </g>
 </g>
 <defs>
  <clipPath id="pd16dbe6b30">
   <rect x="40.603125" y="50.64" width="450.88" height="267.4"/>
  </clipPath>
  <clipPath id="pf7b8ba16aa">
   <rect x="542.353125" y="50.64" width="450.88" height="267.4"/>
  </clipPath>
 </defs>
</svg>
